#!OML:ASF I:\Actors\actors\Patient Classification 2\Patient 1\Session 1\actor1.ASF
:FULLY-SPECIFIED
:DEGREES
980
root -0.785447 18.3398 5.75287 -6.95792 3.6284 -3.30901
lowerback 10.158 1.99536 -5.31795
upperback 3.29024 2.02993 -3.14494
thorax -2.32931 1.01508 -0.522031
lowerneck -10.4142 -3.91591 -3.1177
upperneck 18.4577 -7.56052 13.5736
head 8.08473 -2.5905 4.26615
rclavicle 4.47266e-014 -1.59028e-015
rhumerus 23.1767 16.804 -55.9816
rradius 69.3051
rwrist 15.2219
rhand -23.7418 -31.8618
rfingers 7.12502
rthumb 2.72668 -61.8241
lclavicle 4.47266e-014 -1.59028e-015
lhumerus 3.94557 -18.0411 88.9107
lradius 71.6105
lwrist 29.2124
lhand -32.739 -33.2424
lfingers 7.12502
lthumb -5.96221 -3.3463
rfemur 12.3613 -4.67267 16.9829
rtibia 9.31042
rfoot -19.2618 -7.59362
rtoes -10.4867
lfemur -5.21773 0.339042 -13.4692
ltibia 35.2206
lfoot -23.4781 8.78482
ltoes -55.5586
981
root -0.786696 18.3397 5.75198 -6.98408 3.54431 -3.32267
lowerback 10.1412 1.99428 -5.2215
upperback 3.29357 2.03772 -3.21124
thorax -2.31139 1.01896 -0.644872
lowerneck -10.4421 -3.89553 -2.95582
upperneck 18.5321 -7.5622 13.527
head 8.10764 -2.57987 4.22349
rclavicle -1.98785e-014 -4.77083e-015
rhumerus 24.2616 18.0342 -55.192
rradius 69.2759
rwrist 16.5797
rhand -24.3555 -31.1431
rfingers 7.12502
rthumb 2.13405 -61.1122
lclavicle -1.98785e-014 -4.77083e-015
lhumerus 3.74797 -17.9313 89.2981
lradius 71.6618
lwrist 29.4971
lhand -32.8214 -33.5321
lfingers 7.12502
lthumb -6.04175 -3.63823
rfemur 12.5386 -4.59243 17.0179
rtibia 8.97611
rfoot -19.1511 -7.6764
rtoes -10.3539
lfemur -5.13931 0.381873 -13.4417
ltibia 35.1527
lfoot -23.4909 8.80897
ltoes -55.5341
982
root -0.808973 18.3392 5.76482 -7.13659 3.88801 -3.42168
lowerback 10.0474 1.88687 -5.42493
upperback 3.40165 1.89131 -3.16355
thorax -2.15044 0.942098 -0.4585
lowerneck -10.4741 -3.87461 -2.82843
upperneck 18.6152 -7.56309 13.5043
head 8.13637 -2.56857 4.19515
rclavicle 1.25234e-014 3.49861e-014
rhumerus 25.3892 19.2648 -54.3853
rradius 69.2107
rwrist 18.084
rhand -24.7251 -30.5818
rfingers 7.12502
rthumb 1.77707 -60.5542
lclavicle 1.25234e-014 3.49861e-014
lhumerus 3.61145 -17.8965 89.609
lradius 71.7258
lwrist 29.8314
lhand -32.9483 -33.8593
lfingers 7.12502
lthumb -6.1643 -3.96902
rfemur 12.9998 -4.96434 17.1825
rtibia 8.66468
rfoot -19.2239 -7.6404
rtoes -9.91322
lfemur -4.94224 0.307519 -13.2067
ltibia 35.0783
lfoot -23.4054 8.50647
ltoes -55.5798
983
root -0.816926 18.3393 5.76708 -7.20209 3.98096 -3.4508
lowerback 9.98996 1.8375 -5.46807
upperback 3.45895 1.82991 -3.17055
thorax -2.05808 0.909352 -0.431254
lowerneck -10.4694 -3.84628 -2.8359
upperneck 18.6638 -7.55129 13.613
head 8.15581 -2.55187 4.23614
rclavicle 2.64384e-014 -3.18055e-015
rhumerus 26.4944 20.4307 -53.6464
rradius 69.1689
rwrist 19.2238
rhand -24.8045 -29.9814
rfingers 7.12502
rthumb 1.70043 -59.9544
lclavicle 2.64384e-014 -3.18055e-015
lhumerus 3.47165 -17.8658 89.9033
lradius 71.8198
lwrist 30.1245
lhand -33.1385 -34.0666
lfingers 7.12502
lthumb -6.34796 -4.18172
rfemur 13.2222 -5.06664 17.238
rtibia 8.42953
rfoot -19.1611 -7.6853
rtoes -9.91024
lfemur -4.84414 0.290399 -13.1297
ltibia 35.0142
lfoot -23.3364 8.45803
ltoes -55.6589
984
root -0.818201 18.3389 5.76407 -7.23761 3.94253 -3.44989
lowerback 9.96487 1.81954 -5.42731
upperback 3.48994 1.81297 -3.21011
thorax -2.00905 0.900059 -0.491551
lowerneck -10.438 -3.80349 -2.83885
upperneck 18.6625 -7.51258 13.7194
head 8.15076 -2.52555 4.27788
rclavicle -1.59028e-015 1.43125e-014
rhumerus 27.5271 21.5336 -52.9903
rradius 69.1899
rwrist 19.8271
rhand -24.9113 -29.3129
rfingers 7.12502
rthumb 1.59728 -59.2867
lclavicle -1.59028e-015 1.43125e-014
lhumerus 3.35172 -17.7742 90.2105
lradius 71.8924
lwrist 30.3512
lhand -33.2138 -34.2599
lfingers 7.12502
lthumb -6.42064 -4.37725
rfemur 13.328 -5.0286 17.2475
rtibia 8.26098
rfoot -19.0477 -7.7452
rtoes -10.0005
lfemur -4.7804 0.324726 -13.1192
ltibia 34.955
lfoot -23.2913 8.4894
ltoes -55.697
985
root -0.819306 18.3387 5.76088 -7.27283 3.90447 -3.41417
lowerback 9.97193 1.82022 -5.41854
upperback 3.50521 1.81361 -3.26574
thorax -1.99495 0.900246 -0.554199
lowerneck -10.3997 -3.76656 -2.72692
upperneck 18.6507 -7.47823 13.7145
head 8.13275 -2.50387 4.26099
rclavicle -2.52457e-014 4.13472e-014
rhumerus 28.4233 22.527 -52.429
rradius 69.2109
rwrist 20.5445
rhand -25.1605 -28.8652
rfingers 7.12502
rthumb 1.35657 -58.8406
lclavicle -2.52457e-014 4.13472e-014
lhumerus 3.24018 -17.7588 90.463
lradius 71.9406
lwrist 30.6509
lhand -33.2308 -34.4733
lfingers 7.12502
lthumb -6.43703 -4.59111
rfemur 13.3321 -4.98552 17.2181
rtibia 8.30598
rfoot -19.0372 -7.7263
rtoes -9.97773
lfemur -4.7306 0.382643 -13.1441
ltibia 34.9219
lfoot -23.2587 8.48576
ltoes -55.6981
986
root -0.820041 18.3383 5.75855 -7.315 3.87655 -3.34069
lowerback 9.99276 1.8422 -5.45059
upperback 3.51985 1.83733 -3.32268
thorax -1.99079 0.911946 -0.598732
lowerneck -10.3912 -3.75675 -2.59373
upperneck 18.6679 -7.47823 13.6536
head 8.13012 -2.49943 4.21775
rclavicle 1.25234e-014 -3.33958e-014
rhumerus 29.1812 23.4008 -51.9521
rradius 69.242
rwrist 21.4935
rhand -25.1931 -28.7185
rfingers 7.12502
rthumb 1.3251 -58.6941
lclavicle 1.25234e-014 -3.33958e-014
lhumerus 3.1146 -17.8129 90.7102
lradius 72.0663
lwrist 31.0222
lhand -33.3366 -34.5392
lfingers 7.12502
lthumb -6.53913 -4.66018
rfemur 13.3193 -4.94545 17.1414
rtibia 8.41717
rfoot -19.0938 -7.6999
rtoes -9.94223
lfemur -4.67079 0.417575 -13.2184
ltibia 34.9018
lfoot -23.2528 8.50984
ltoes -55.7241
987
root -0.819857 18.3372 5.75689 -7.35615 3.84248 -3.29698
lowerback 9.98399 1.86868 -5.45788
upperback 3.54172 1.87309 -3.34904
thorax -1.96352 0.929127 -0.625589
lowerneck -10.383 -3.76925 -2.51188
upperneck 18.6863 -7.49917 13.5877
head 8.13121 -2.50896 4.1793
rclavicle 4.53229e-014 -5.725e-014
rhumerus 29.8937 24.2601 -51.4281
rradius 69.2936
rwrist 22.2541
rhand -25.099 -28.5484
rfingers 7.12502
rthumb 1.41592 -58.5235
lclavicle 4.53229e-014 -5.725e-014
lhumerus 2.98435 -17.7964 91.0404
lradius 72.2216
lwrist 31.4126
lhand -33.4706 -34.6576
lfingers 7.12502
lthumb -6.66855 -4.7826
rfemur 13.3069 -4.90248 17.0924
rtibia 8.52399
rfoot -19.1634 -7.65958
rtoes -9.72841
lfemur -4.60757 0.459774 -13.2613
ltibia 34.8841
lfoot -23.2513 8.53406
ltoes -55.7503
988
root -0.819679 18.3365 5.75597 -7.38965 3.7863 -3.30663
lowerback 9.93832 1.89256 -5.42058
upperback 3.57633 1.91414 -3.35022
thorax -1.90245 0.948318 -0.650178
lowerneck -10.3888 -3.78282 -2.48231
upperneck 18.7005 -7.52051 13.5636
head 8.13704 -2.51824 4.16386
rclavicle -2.40529e-014 -9.54166e-015
rhumerus 30.5918 25.0899 -50.8886
rradius 69.3335
rwrist 22.7408
rhand -25.106 -28.1548
rfingers 7.12502
rthumb 1.40923 -58.1299
lclavicle -2.40529e-014 -9.54166e-015
lhumerus 2.88683 -17.7081 91.3795
lradius 72.3391
lwrist 31.844
lhand -33.5828 -34.9155
lfingers 7.12502
lthumb -6.77685 -5.04398
rfemur 13.2835 -4.84624 17.1058
rtibia 8.62824
rfoot -19.1835 -7.61113
rtoes -9.62201
lfemur -4.55125 0.5517 -13.2321
ltibia 34.866
lfoot -23.2635 8.50025
ltoes -55.7648
